<svg xmlns="http://www.w3.org/2000/svg" width="1426.867" height="525.471" viewBox="0 0 1426.867 525.471"><defs><style>.a,.j{opacity:0.5;}.b,.d,.e,.f{fill:#ffe4d3;}.c{fill:#f5772b;}.d{opacity:0.52;}.e{opacity:0.32;}.f{opacity:0.25;}.g{fill:#f2a37c;}.h{fill:#ffd9c4;}.i{fill:#fdbc95;}.j{fill:#fff;}.k{fill:#ffc071;}.l{fill:#4a2b18;}.m,.s{fill:#747474;}.m,.v{opacity:0.4;mix-blend-mode:color-burn;isolation:isolate;}.n{fill:#e56315;}.o{fill:#f87e0b;}.p{fill:#ea9f44;}.q{fill:#242424;}.r{fill:#848484;}.t{fill:#ffa944;}.u{fill:#4c4d4c;}.w{fill:#515151;}</style></defs><g transform="translate(-377 -460.089)"><g transform="translate(1048.273 28.39)"><g transform="translate(-606.11 476.2)"><g class="a" transform="translate(291.569 82.059)"><path class="b" d="M621.223,687.913V606.595l-55.15,60.279V767.107H530.538V623.459H521.5l-25.728-24.041-25.867,24.041h-8.887V817.313H330.285V922.9h377.1V687.913ZM521.5,739.457H470.057V734.2H521.5Zm0-10.487H470.057v-5.255H521.5Zm0-10.491H470.057v-5.242H521.5Zm0-10.487H470.057v-5.242H521.5Zm0-10.478H470.057v-5.255H521.5Zm0-10.487H470.057v-5.255H521.5Zm0-10.487H470.057v-5.245H521.5Zm0-10.487H470.057v-5.245H521.5Zm0-10.487H470.057v-5.246H521.5Zm0-10.478H470.057v-5.255H521.5Zm0-10.487H470.057v-5.246H521.5Zm92.725,255.435h-5.342V631.97l5.342-5.853Z" transform="translate(-279.51 -599.418)"/><path class="b" d="M742.4,687.913V606.595l-55.153,60.279V767.107H651.715V623.459H642.68l-25.728-24.041-25.87,24.041H582.2V817.313H451.461V922.9h377.1V687.913ZM642.68,739.457H591.233V734.2H642.68Zm0-10.487H591.233v-5.255H642.68Zm0-10.491H591.233v-5.242H642.68Zm0-10.487H591.233v-5.242H642.68Zm0-10.478H591.233v-5.255H642.68Zm0-10.487H591.233v-5.255H642.68Zm0-10.487H591.233v-5.245H642.68Zm0-10.487H591.233v-5.245H642.68Zm0-10.487H591.233v-5.246H642.68Zm0-10.478H591.233v-5.255H642.68Zm0-10.487H591.233v-5.246H642.68ZM735.4,890.034h-5.342V631.97l5.342-5.853Z" transform="translate(-11.222 -599.418)"/><path class="b" d="M844.2,810.5V626.709h-8.283v-18.6H771.856v18.6h-8.234V857.762H703.5V753.126H615.94V890.433h-42.3V644.479H487.394V833.442H477.27V720.957h-15.6l-43.492-22.968v22.968h-9.514V859.88H387.547V671.75H366.19v-66h-2.925v66H341.908V909.286H898.164V810.5ZM382.4,792.636H347.163v-4.088H382.4Zm0-9.462H347.163v-4.088H382.4Zm0-9.475H347.163v-4.088H382.4Zm0-9.459H347.163v-4.089H382.4Zm0-9.462H347.163V750.69H382.4Zm0-9.472H347.163v-4.091H382.4Zm0-9.462H347.163v-4.088H382.4Zm0-9.462H347.163v-4.088H382.4Zm0-9.472H347.163v-4.088H382.4Zm0-9.462H347.163V703.36H382.4Zm0-9.459H347.163V693.9H382.4Zm0-9.475H347.163v-4.088H382.4Zm0-9.462H347.163v-4.088H382.4Zm123.573,56.342H495.478V724.913h10.494Zm0-17.478H495.478V707.423h10.494Zm0-17.494H495.478V689.945h10.494Zm0-17.478H495.478V672.451h10.494Zm0-17.494H495.478V654.957h10.494ZM525.9,735.394H515.418V724.913H525.9Zm0-17.478H515.418V707.423H525.9Zm0-17.494H515.418V689.945H525.9Zm0-17.478H515.418V672.451H525.9Zm0-17.494H515.418V654.957H525.9Zm19.94,69.944H535.345V724.913h10.494Zm0-17.478H535.345V707.423h10.494Zm0-17.494H535.345V689.945h10.494Zm0-17.478H535.345V672.451h10.494Zm0-17.494H535.345V654.957h10.494Zm19.927,69.944H555.288V724.913h10.478Zm0-17.478H555.288V707.423h10.478Zm0-17.494H555.288V689.945h10.478Zm0-17.478H555.288V672.451h10.478ZM852.46,897h-10.9V886.091h10.9Zm0-21.833h-10.9v-10.9h10.9Zm0-21.833h-10.9v-10.9h10.9Zm0-21.833h-10.9V820.6h10.9ZM872.693,897h-10.9V886.091h10.9Zm0-21.833h-10.9v-10.9h10.9Zm0-21.833h-10.9v-10.9h10.9Zm0-21.833h-10.9V820.6h10.9ZM892.925,897H882.007V886.091h10.918Zm0-21.833H882.007v-10.9h10.918Zm0-21.833H882.007v-10.9h10.918Zm0-21.833H882.007V820.6h10.918Z" transform="translate(-253.776 -585.399)"/><path class="b" d="M923.807,790.971V626.709h-8.283v-18.6H851.459v18.6h-8.234V857.762H783.1V753.126H695.543V890.433h-42.3V644.479H567V833.442H556.873V720.957h-15.6L497.78,697.989v22.968h-9.514V859.88H467.147V671.75H445.793v-66h-2.925v66H421.511V909.286H977.767V790.971ZM462,792.636H426.766v-4.088H462Zm0-9.462H426.766v-4.088H462Zm0-9.475H426.766v-4.088H462Zm0-9.459H426.766v-4.089H462Zm0-9.462H426.766V750.69H462Zm0-9.472H426.766v-4.091H462Zm0-9.462H426.766v-4.088H462Zm0-9.462H426.766v-4.088H462Zm0-9.472H426.766v-4.088H462Zm0-9.462H426.766V703.36H462Zm0-9.459H426.766V693.9H462Zm0-9.475H426.766v-4.088H462Zm0-9.462H426.766v-4.088H462Zm123.573,56.342H575.081V724.913h10.494Zm0-17.478H575.081V707.423h10.494Zm0-17.494H575.081V689.945h10.494Zm0-17.478H575.081V672.451h10.494Zm0-17.494H575.081V654.957h10.494ZM605.5,735.394H595.021V724.913H605.5Zm0-17.478H595.021V707.423H605.5Zm0-17.494H595.021V689.945H605.5Zm0-17.478H595.021V672.451H605.5Zm0-17.494H595.021V654.957H605.5Zm19.94,69.944H614.948V724.913h10.494Zm0-17.478H614.948V707.423h10.494Zm0-17.494H614.948V689.945h10.494Zm0-17.478H614.948V672.451h10.494Zm0-17.494H614.948V654.957h10.494Zm19.927,69.944H634.887V724.913h10.481Zm0-17.478H634.887V707.423h10.481Zm0-17.494H634.887V689.945h10.481Zm0-17.478H634.887V672.451h10.481ZM937.595,868.054h-9.414V858.64h9.414Zm0-18.85h-9.414v-9.411h9.414Zm0-18.847h-9.414v-9.414h9.414Zm0-18.85h-9.414V802.1h9.414Zm17.465,56.548h-9.414V858.64h9.414Zm0-18.85h-9.414v-9.411h9.414Zm0-18.847h-9.414v-9.414h9.414Zm0-18.85h-9.414V802.1h9.414Zm17.468,56.548H963.1V858.64h9.427Zm0-18.85H963.1v-9.411h9.427Zm0-18.847H963.1v-9.414h9.427Zm0-18.85H963.1V802.1h9.427Z" transform="translate(-77.532 -585.399)"/><rect class="b" width="37.357" height="83.242" transform="translate(900.234 240.647)"/><path class="c" d="M1301.741,701.916H315.6a1.112,1.112,0,0,1-1.112-1.112h0a1.112,1.112,0,0,1,1.112-1.112h986.142a1.112,1.112,0,0,1,1.112,1.112h0A1.112,1.112,0,0,1,1301.741,701.916Z" transform="translate(-314.487 -377.408)"/></g><path class="d" d="M498.01,715.415s-92.48-.177-143.69,4.092c-35.186,2.933-43.306,17.937-22.155,23.462,59.907,15.652,169.772,2.071,168.145,13.861-.945,6.861-54.59,2.955-54.59,13.234,0,10.685,236.654,13.225,231.181-1.028-3.917-10.2-56.828-7.127-61.481-15.9S741.045,755.5,756.563,740.9c9.973-9.382-26.971-22.348-172.159-20.313" transform="translate(483.96 -297.941)"/><path class="e" d="M498.01,778.91s-92.48.177-143.69-4.092c-35.186-2.933-43.306-17.937-22.155-23.462,59.907-15.652,169.772-2.071,168.145-13.861-.945-6.861-54.59-2.955-54.59-13.234,0-10.684,236.654-13.225,231.181,1.028-3.917,10.2-56.828,7.127-61.481,15.9s125.624-2.357,141.142,12.243c9.973,9.382-26.971,22.348-172.159,20.313" transform="translate(-320.596 -325.03)"/><g transform="translate(-0.239 0)"><path class="f" d="M553.122,618.385H668.394c17.38,0,17.6-19.766,2.169-23.741a32.16,32.16,0,0,0-27.137,5.265s-4.186-48.578-43.865-42.875c-31.281,4.5-29.465,35.726-29.465,35.726s-6.438-12.853-23.313-7.99C529.177,589.843,531.086,618.385,553.122,618.385Z" transform="translate(525.22 -530.085)"/><path class="f" d="M569.723,550.368H436.817c-20.039,0-20.292-22.79-2.5-27.373a37.075,37.075,0,0,1,31.288,6.07s4.827-56.009,50.574-49.434c36.069,5.185,33.972,41.188,33.972,41.188s7.424-14.818,26.879-9.211C597.331,517.458,595.131,550.368,569.723,550.368Z" transform="translate(158.333 -479.095)"/><path class="f" d="M486.713,615.28h-124.2c-18.73,0-18.963-21.3-2.34-25.58a34.647,34.647,0,0,1,29.239,5.672s4.511-52.342,47.265-46.2c33.7,4.845,31.747,38.491,31.747,38.491s6.938-13.847,25.119-8.608C512.512,584.525,510.457,615.28,486.713,615.28Z" transform="translate(-375.638 -436.227)"/></g></g><g transform="translate(-522.919 431.699)"><rect class="g" width="171.323" height="9.106" transform="translate(207.898 172.261)"/><path class="h" d="M463.686,407.406h.919l29.326-36.9,28.471,36.9H638.359l60.659,58.762H639.19v58.483l69.965,17.039v10.186h-2.824v-8.026l-68.552-16.7-67.965,16.693v8.029h-2.826V541.693l69.377-17.04V466.169H581.124l-.153.15-.153-.15H579.5l-.153.15-.153-.15H523.948V804.441H463.686V466.169H408.443l-.153.15-.153-.15h-1.426l-60.657-58.762Zm228.464,56L639.19,412.1v51.305ZM583.382,410.171l25.493,24.941,25.493-24.941Zm52.984,1.953-25.493,24.942,25.493,24.941ZM633.8,463.406l-24.927-24.387-24.927,24.387Zm-52.049-1.759,25.125-24.58-25.125-24.582Zm-55.809-51.476,25.493,24.941,25.493-24.941Zm52.984,1.953-25.494,24.942,25.494,24.941Zm-2.564,51.282-24.927-24.387-24.926,24.387Zm-52.417-1.4,25.493-24.941-25.493-24.942ZM493.9,375.052l-25.718,32.354h50.683Zm-25.292,35.119,25.258,24.712,25.261-24.712Zm50.151,332.968-24.893-24.354-24.893,24.354ZM468.34,745.9l25.526,24.973L519.394,745.9Zm50.92-55.868H468.473l25.393,24.842Zm-.366-2.763-25.028-24.485-25.026,24.485Zm.233-53.106h-50.52l25.259,24.713Zm-.1-2.763-25.161-24.616L468.7,631.4Zm-.034-53.1H468.741l25.125,24.582Zm.168-2.763-25.3-24.746-25.294,24.746Zm-.035-53.366H468.608l25.258,24.712Zm-.1-2.763-25.161-24.616L468.7,519.4Zm.1-53.236H468.608l25.258,24.713Zm-.1-2.763L493.866,438.79,468.7,463.406Zm2.1-51.282-25.261,24.713,25.261,24.712Zm0,56-25.261,24.712,25.261,24.713Zm0,56-25.261,24.712,25.261,24.713Zm0,56-25.261,24.713,25.261,24.712Zm0,56-25.261,24.712,25.261,24.713Zm0,56L495.863,716.83l25.261,24.713Zm0,56-25.261,24.712,25.261,24.713ZM466.51,801.678h54.613v-.229l-27.258-26.666L466.51,801.545Zm0-4.041,25.359-24.808-25.359-24.81Zm0-56,25.359-24.808-25.359-24.81Zm0-56,25.359-24.81-25.359-24.81Zm0-56,25.359-24.808-25.359-24.81Zm0-56,25.359-24.808-25.359-24.81Zm0-56,25.359-24.809-25.359-24.81Zm0-56,25.359-24.808L466.51,412.027ZM410.7,410.171,436.2,435.112l25.494-24.941Zm52.986,1.953-25.495,24.942,25.495,24.941Zm-2.564,51.282L436.2,439.019l-24.928,24.387Zm-52.418-1.4L434.2,437.066,408.7,412.124Zm-2.824-51.836H352.919l52.961,51.305Z" transform="translate(-346.054 -370.51)"/><path class="i" d="M506.789,444.208V483.9H467.081V444.208Z" transform="translate(-295.015 -354.422)"/><rect class="j" width="10.535" height="34.023" transform="translate(198.906 92.538)"/><rect class="j" width="10.535" height="34.023" transform="translate(185.825 92.538)"/></g></g><g transform="translate(135.34 135.809)"><g transform="translate(241.66 599.596)"><g transform="translate(71.508 29.201)"><path class="k" d="M244.116,656.682l-1.507-7.266.9-.164,3.284-.593.589-.108.646-1.189,5.377-9.885,2.573-4.709.564-1.047-5.055-1.92-6.154-2.339-12.672-4.816-2.817,5.09-.325,3.8-.01.121-5.693,4.765,2.409,4.225-1.471,8.454,4.8,2.657,2.207-.4.967,6.825C236.433,658.5,240.675,656.4,244.116,656.682Z" transform="translate(-221.602 -611.954)"/><path class="l" d="M240.8,645.36l-1.244,1.3-3.28.584s-1.321-5.358-1.55-6.28l3.721-1.285.941-3.079-2.327-2.7-2.153,1.129c-.964-4.029-1.015-8.7-.776-8.266l3.965-1.293,11.214,4.261Z" transform="translate(-214.375 -609.954)"/><path class="m" d="M253.613,632.769c-1.321-.912-2.841-1.92-4.492-2.968l-6.154-2.339L230.3,622.646l-2.817,5.09-.325,3.8c4.982,1.445,16.14,4.562,23.886,5.942Z" transform="translate(-219.237 -611.954)"/><path class="n" d="M231.03,623.761s-3.735-1.427-5.038-.885c-1.047.441-4.943,2.8-2.877,3.791s36.411,11.888,36.175,9.933,1.039-2.991-2.476-4Z" transform="translate(-222.52 -611.878)"/><path class="o" d="M255.318,638.455s-5.694.764-14.794-2.424a99.185,99.185,0,0,1-14.225-6.316,26.517,26.517,0,0,1,2.429-5.8c.261-.458.54-.887.82-1.3,4.92-7.153,12.479-7.379,18.52-4.488a15.312,15.312,0,0,1,8.624,15.556c-.008.087-.019.178-.034.268A15.114,15.114,0,0,1,255.318,638.455Z" transform="translate(-219.842 -616.388)"/><path class="n" d="M255.651,632.949c-.01-.026-.027-.051-.038-.077-.133-.251-.343-.615-.579-1.078-.125-.239-.249-.5-.4-.781-.167-.267-.335-.569-.521-.882s-.371-.644-.574-1c-.225-.34-.458-.7-.706-1.063-.121-.188-.241-.383-.367-.574s-.273-.369-.417-.56c-.292-.374-.56-.784-.888-1.163s-.661-.76-1-1.15c-.381-.364-.75-.733-1.131-1.11-.424-.325-.825-.69-1.264-1.017-.222-.15-.451-.3-.677-.451l-.342-.237-.364-.195c-.239-.128-.48-.26-.721-.393s-.507-.22-.76-.333a13.709,13.709,0,0,0-1.57-.557c-.267-.068-.54-.123-.813-.183l-.407-.1-.41-.055c-.28-.031-.554-.079-.832-.109l-.835-.048a18.178,18.178,0,0,0-3.279.183c-.531.056-1.051.19-1.565.272-.509.125-1.013.226-1.493.369-.974.258-1.872.579-2.706.876-.825.32-1.591.61-2.25.914-.366.164-.707.321-1.017.463.261-.458.54-.887.82-1.3.565-.383,1.215-.782,1.937-1.18a24.423,24.423,0,0,1,2.7-1.27c.494-.21,1.023-.359,1.556-.545.547-.152,1.1-.318,1.681-.431a16.533,16.533,0,0,1,3.648-.388,15.38,15.38,0,0,1,3.813.506,15.21,15.21,0,0,1,1.83.663c.294.137.6.26.88.412s.555.323.827.482l.412.241.384.282c.251.19.5.376.753.565.473.391.912.82,1.353,1.223.393.446.784.88,1.153,1.316.328.463.653.912.97,1.355.3.446.538.907.8,1.338.12.224.248.43.354.649s.205.431.3.641q.287.633.55,1.208c.14.395.275.769.4,1.121s.246.678.345.982.162.594.232.854c.116.422.2.781.261,1.044C255.677,632.767,255.667,632.858,255.651,632.949Z" transform="translate(-218.835 -615.388)"/><path class="n" d="M231.9,628.456s.6-3.446,1.4-3.625,7.909,1.8,8.209,2.4-.536,4.655-.846,4.767Z" transform="translate(-215.874 -610.414)"/></g><path class="p" d="M250.231,671.852l-28.084-8.611-15.288-26.574,3.226-5.39L228,655.182s28.246,5.231,28.306,5.279Z" transform="translate(-162.108 -576.637)"/><g transform="translate(64.233 69.273)"><path class="n" d="M257.784,711.463l-8.577-35.256-.114-.41c-2.043,4.352-8.013,17.045-12.436,26.063l6.711,15.839,11.5,12.991,17.049-1.638Z" transform="translate(-205.229 -614.368)"/><path class="q" d="M264.367,706.968l-17.049,1.638,11.315,15.987-7.848,4.217-1.524,7.332,27.4-7.332Z" transform="translate(-197.676 -592.284)"/><path class="k" d="M226.528,663.562l.081.911-.076-.909Z" transform="translate(-212.406 -623.037)"/><path class="k" d="M228.6,673.194l2.175,9.745-4.2-18.844Z" transform="translate(-212.372 -622.659)"/><path class="k" d="M233.414,712.446c.072-8.812.176-16.1.391-15.756C233.558,696.292,233.465,702.569,233.414,712.446Z" transform="translate(-207.527 -599.578)"/><path class="q" d="M227.489,669.126l13.6,3.7,6.95-25.246-18.166-2.541a45.7,45.7,0,0,0-5.607,11.315Z" transform="translate(-214.008 -636.161)"/><path class="q" d="M239.676,639.842c-3.145,1.42-7.678,3.467-11.073,4.984l.012.022-.012.019L244.969,646Z" transform="translate(-210.936 -639.842)"/><path class="o" d="M258.616,697.641,251.7,674.8l2.72-23.478-6.359-7.406L231.7,642.783l-1.8,3.853,18.166,2.54-6.95,25.246-13.6-3.7.646,7.562.075.909,4.2,18.843-8.2,27.623,1.758,28.111-.08-1.329H239.9c0,.569,0,1.158,0,1.736h0c0-1.228.007-2.407.014-3.552.051-9.877.144-16.154.391-15.756.179.292,2.354-3.929,5.149-9.62,4.423-9.017,10.393-21.711,12.436-26.063C258.349,698.21,258.616,697.641,258.616,697.641Z" transform="translate(-214.031 -637.758)"/><path class="q" d="M230.143,706.968l.08,1.329,1.08,17.372-9.974,4.362-3.067,6.485,25.849-2.036s-.022-10.41,0-21.213c.01-1.529.017-3.053.02-4.563,0-.578,0-1.167,0-1.736Z" transform="translate(-218.262 -592.284)"/></g><rect class="l" width="23.991" height="211.852"/><path class="k" d="M258.322,656.694l-24.877,15.624-30.1-5.8-1.97-5.963,29.8,2.069S245.05,651.346,249.361,648Z" transform="translate(-165.994 -564.789)"/><path class="k" d="M207.009,658.27l-13.592-7.044v17.215l12.415-.72,3.913-3.34Z" transform="translate(-171.631 -562.504)"/><path class="n" d="M199.311,657.2l9.867-37.506,3.029.838-7.6,38.314Z" transform="translate(-167.456 -584.845)"/><path class="r" d="M223,622.986l-6.573,2.37-15.517-4.316.09-.424,1.318-5.59,11.56,2.326,3.8.76Z" transform="translate(-166.321 -588.151)"/><path class="p" d="M215.433,636.653l-3.107-7.209-8.768-4.1-4.247,13.738,8.282,3.873,5.084.779Z" transform="translate(-167.456 -580.842)"/><path class="r" d="M194.18,617.011h4.285v-1.982h1.3v6.288l-1.35-.087v-2.079l-4.239.088Z" transform="translate(-171.09 -588.149)"/><path class="m" d="M223,622.021l-6.573,2.37-15.517-4.315.09-.424,12.878-3.264,3.8.76Z" transform="translate(-166.321 -587.186)"/><path class="m" d="M204.657,811.148H180.665V599.3h.224Z" transform="translate(-180.665 -599.296)"/></g><g transform="translate(1016.66 626.073)"><g transform="translate(50.46 21.321)"><path class="k" d="M695.669,660.9l4.852-5.67-.707-.577-2.6-2.127-.465-.381.01-1.367.087-11.324.031-5.4.01-1.194,5.361.772,6.525.94L722.21,636.5v5.862l-1.553,3.5-.053.116,2.672,6.971L719.12,655.5l-2.814,8.161h-5.489l-1.737-1.427-2.317,3.68C703.364,664.389,698.821,662.329,695.669,660.9Z" transform="translate(-695.669 -623.318)"/><path class="l" d="M696.31,654.733l.46,1.751,2.59,2.119s3.754-4.078,4.4-4.777l-2.633-2.944.666-3.171,3.35-1.251,1.336,2.042c2.8-3.079,5.1-7.162,4.69-6.9l1.989-13.21-9.761-1.119-6.96,9.542Z" transform="translate(-695.215 -627.273)"/></g><g transform="translate(0 58.905)"><path class="k" d="M704.27,673.149l-.078.921.078-.914Z" transform="translate(-639.171 -632.354)"/><path class="q" d="M711.837,678.751l-13.613,3.725-3.808-22.108,15.035-5.867a45.916,45.916,0,0,1,5.612,11.394Z" transform="translate(-646.097 -645.566)"/><path class="q" d="M697.865,649.271c3.152,1.428,7.695,3.489,11.093,5.014l-.014.026.014.02-16.388,1.141Z" transform="translate(-647.405 -649.271)"/><path class="o" d="M716.811,680.358l-.642,7.617-.078.914-2.848,12.852H687.395l5.2-17.273-2.722-23.634,6.362-7.46,16.387-1.141,1.8,3.876-15.036,5.866,3.808,22.109Z" transform="translate(-651.071 -647.173)"/><g transform="translate(0 42.934)"><path class="n" d="M666.134,751.015l6.981-4.674s2.978-16.089,3.309-17.907c.625.719,4.787,2.708,10.22,5.12,12.123,5.368,30.582,12.791,30.582,12.791l5.124-58.724-23.946-.044,3.224,38.058-13.757-2.85-17.411-5.064Z" transform="translate(-666.134 -665.066)"/><path class="k" d="M702.4,683.071q-.472,2.122-.945,4.244.433-1.955.871-3.914Z" transform="translate(-641.11 -668.259)"/><path class="k" d="M713.337,713.4c-.07-9.028-.179-16.489-.4-16.138C713.192,696.853,713.288,703.286,713.337,713.4Z" transform="translate(-632.972 -658.216)"/><path class="o" d="M716.954,676.533l-2.8,16.924L749.2,704.019,747.41,732.8l.082-1.358h-14.25v1.773c0-1.259-.007-2.465-.015-3.631-.05-10.118-.145-12.609-.4-12.2-.181.3-41.236-6.455-41.236-6.455l-6.724-14.79,7.816-21.747Z" transform="translate(-652.861 -674.401)"/><path class="q" d="M727.432,707.79l-.082,1.358-1.114,16.042,10.157,4.466,3.125,6.639-26.328-2.086s.027-10.653,0-21.718c-.009-1.565,0-1.379-.009-2.928V707.79Z" transform="translate(-632.801 -650.745)"/><path class="q" d="M666.134,738.514,677,732.956s3.878-12.5,4.21-14.315c.624.718,0,0,5.433,2.412l1.227-10.768-17.411-5.064Z" transform="translate(-666.134 -652.565)"/></g></g><rect class="q" width="15.18" height="2.655" transform="translate(123.097 48.852)"/><path class="k" d="M698.92,672.753l29.088,4.1,25.106-17.6-.642-6.245-26.352,14.063s-17.275-4.626-22.576-5.918Z" transform="translate(-642.906 -587.717)"/><path class="s" d="M744.382,642.648,739.535,680.8,733,680.62l4.246-38.255Z" transform="translate(-618.761 -595.26)"/><path class="s" d="M701.735,644.27v10l.716,11.514,9.659,7.423,4.473-3.486,7.446-31.3-5.927-9.593-11.445-2.862Z" transform="translate(-640.912 -606.883)"/><path class="q" d="M718.009,640.563l-8.8-3.72-2.3,8.1,9.084,3.074Z" transform="translate(-637.247 -599.171)"/><path class="s" d="M705.574,638.418l-9.264-4.192.258,2.1,9.006,4.473Z" transform="translate(-644.755 -601.026)"/><path class="m" d="M701.735,644.27v10l.716,11.514,9.659,7.423-3.773-11.459.979-15.082,8.786-17.841-11.445-2.862Z" transform="translate(-640.912 -606.883)"/><path class="o" d="M720.4,662.435l4.192,13.171,12.655-13.372,4.935,1.45h9.145l1.975-14.243h-9.684l-6.371,6.1Z" transform="translate(-627.684 -590.246)"/><path class="o" d="M751.115,650.972l-5.871-21.94-4.192,1.956Z" transform="translate(-613.056 -604.705)"/><path class="n" d="M751.692,645.656l-12.9-9.508-2.15,2.375Z" transform="translate(-616.176 -599.664)"/><path class="o" d="M748.063,646.9l-7.686,12.979,3.844,1.274Z" transform="translate(-613.534 -592.043)"/><path class="n" d="M747.97,646.152l-1.122,25.241-3.362-.9Z" transform="translate(-611.332 -592.576)"/><rect class="s" width="12.812" height="187.959" transform="translate(138.276)"/><path class="m" d="M747.069,802.752h12.812V614.793h-.222Z" transform="translate(-608.793 -614.793)"/></g><g transform="translate(755.66 601.615)"><g transform="translate(34.803 27.636)"><path class="k" d="M539.622,656.907l1.56-7.256-.9-.171L537,648.866l-.588-.115-.637-1.194-5.308-9.921-2.535-4.727-.559-1.051,5.069-1.884,6.169-2.295,12.709-4.726,2.783,5.11.3,3.8.008.119,5.655,4.806L557.628,641l1.411,8.462-4.818,2.623-2.206-.414-.1,7.138C548.2,659.1,543.063,656.651,539.622,656.907Z" transform="translate(-525.393 -612.19)"/><path class="l" d="M535.776,645.594,537,646.906l3.282.607s1.358-5.349,1.592-6.268l-3.711-1.312-.917-3.086,2.344-2.687,2.146,1.143c.989-4.02,1.073-8.689.832-8.259l-3.955-1.322L527.374,629.9Z" transform="translate(-525.393 -610.229)"/><path class="m" d="M530.236,637.636c7.756-1.326,18.942-4.36,23.932-5.771l-.3-3.8-2.783-5.11-12.709,4.726-6.169,2.295c-1.656,1.035-3.185,2.03-4.511,2.935Z" transform="translate(-525.161 -612.19)"/><path class="n" d="M554.647,624.066s3.742-1.4,5.042-.849c1.044.448,4.922,2.838,2.848,3.81s-36.495,11.628-36.246,9.674-1.015-3,2.506-3.979Z" transform="translate(-526.176 -612.094)"/><path class="o" d="M527.644,638.615s5.691.806,14.813-2.317a98.768,98.768,0,0,0,14.271-6.217,27.045,27.045,0,0,0-2.387-5.819c-.263-.46-.535-.888-.813-1.3-4.869-7.189-12.424-7.468-18.489-4.621A15.319,15.319,0,0,0,526.3,633.83c.01.087.019.178.032.268A15.216,15.216,0,0,0,527.644,638.615Z" transform="translate(-526.214 -616.653)"/><path class="n" d="M526.3,633.1c.01-.024.029-.049.038-.073.14-.251.35-.615.591-1.078.121-.236.253-.494.4-.776.171-.265.342-.565.528-.88s.378-.641.581-.994c.227-.34.463-.692.713-1.057.123-.186.244-.379.372-.569s.273-.369.422-.56c.294-.371.562-.777.9-1.157s.665-.752,1.013-1.141c.379-.362.75-.729,1.136-1.1.427-.325.829-.685,1.271-1.008.222-.149.453-.3.682-.448l.343-.234.364-.193c.239-.125.484-.255.724-.386s.512-.217.762-.328a13.587,13.587,0,0,1,1.574-.547c.268-.065.542-.118.818-.176l.4-.094.412-.053c.277-.027.554-.077.832-.1s.557-.029.836-.046a18.415,18.415,0,0,1,3.275.208c.533.06,1.051.2,1.563.284.511.13,1.013.231,1.493.379.97.265,1.866.593,2.7.9.822.323,1.587.622,2.245.929l1.015.47c-.263-.459-.535-.888-.813-1.3-.564-.388-1.21-.791-1.931-1.2a24.077,24.077,0,0,0-2.694-1.286c-.494-.215-1.022-.366-1.551-.559-.545-.154-1.1-.325-1.676-.441a16.628,16.628,0,0,0-3.646-.415,15.431,15.431,0,0,0-3.817.479,14.683,14.683,0,0,0-1.835.651c-.3.133-.6.256-.887.4s-.554.32-.829.477l-.41.239-.391.278c-.253.188-.5.371-.753.559-.475.389-.923.815-1.362,1.215-.4.442-.793.875-1.164,1.307-.331.461-.659.909-.982,1.348-.3.443-.545.9-.808,1.333-.116.222-.249.429-.357.648s-.205.427-.308.636q-.284.633-.554,1.2c-.143.4-.284.767-.41,1.119s-.249.677-.354.979-.166.6-.236.853c-.123.422-.2.779-.272,1.042C526.276,632.919,526.285,633.01,526.3,633.1Z" transform="translate(-526.178 -615.655)"/><path class="n" d="M542.464,628.745s-.581-3.446-1.379-3.634-7.922,1.746-8.228,2.339.5,4.661.813,4.772Z" transform="translate(-521.555 -610.669)"/></g><path class="p" d="M540.613,670.88l28.082-8.613,16.439-21.382-3.227-5.387-19.061,18.713s-28.248,5.231-28.308,5.279Z" transform="translate(-485.514 -575.665)"/><path class="r" d="M558.915,623.268l-.35-16.957h6.616l.882,2.26-4.8.18.318,14.518h6.3l.225.12h5.453v22.648H571.33l-.375-20.626-11.961.094-.063-1.492h0V624l-.029-.729Z" transform="translate(-468.491 -596.344)"/><g transform="translate(0 69.271)"><path class="n" d="M527.178,712.646l8.577-35.256.113-.412c2.043,4.353,8.013,17.047,12.436,26.063l-6.711,15.843-11.5,12.991-17.049-1.64Z" transform="translate(-500.743 -615.549)"/><path class="q" d="M518.141,708.15l17.049,1.639-11.315,15.989,7.848,4.216,1.524,7.333-27.4-7.333Z" transform="translate(-505.843 -593.465)"/><path class="k" d="M543.846,664.744l-.083.91.079-.908Z" transform="translate(-478.978 -624.217)"/><path class="k" d="M543.481,674.376l-2.175,9.745,4.2-18.844Z" transform="translate(-480.718 -623.84)"/><path class="k" d="M537.09,713.629c-.077-8.812-.176-16.1-.395-15.755C536.943,697.474,537.035,703.751,537.09,713.629Z" transform="translate(-483.986 -600.758)"/><path class="q" d="M552.708,670.308l-13.6,3.7-6.952-25.246,18.17-2.541a45.655,45.655,0,0,1,5.606,11.315Z" transform="translate(-487.202 -637.341)"/><path class="q" d="M537.45,641.023c3.149,1.423,7.681,3.468,11.074,4.985l-.014.022.014.021-16.369,1.134Z" transform="translate(-487.202 -641.023)"/><path class="o" d="M525.98,698.822l6.913-22.837-2.72-23.478,6.357-7.406,16.369-1.135,1.8,3.851-18.17,2.541,6.952,25.246,13.6-3.7-.642,7.563-.079.907-4.2,18.845,8.2,27.621-1.756,28.113.079-1.331H544.691c0,.57,0,1.157.005,1.736h-.005c0-1.228-.007-2.407-.01-3.55-.055-9.878-.147-16.155-.395-15.756-.178.292-2.353-3.931-5.149-9.624-4.423-9.016-10.393-21.71-12.436-26.063Z" transform="translate(-491.577 -638.938)"/><path class="q" d="M550.924,708.15l-.079,1.331-1.081,17.372,9.974,4.36,3.07,6.485-25.854-2.035s.027-10.408,0-21.214c-.009-1.527-.012-3.051-.017-4.563-.005-.579-.005-1.165-.005-1.736Z" transform="translate(-483.818 -593.465)"/></g><rect class="l" width="37.049" height="211.854" transform="translate(106.181)"/><path class="m" d="M567.993,608.335V807.287h15.943L594.521,607.6Z" transform="translate(-461.812 -595.434)"/><g transform="translate(93.832 6.887)"><path class="n" d="M560.765,610.273a5.346,5.346,0,0,1,5.272-5.409h0l28.2-.355.135,10.681-28.2.352h0A5.34,5.34,0,0,1,560.765,610.273Z" transform="translate(-560.765 -604.509)"/><path class="o" d="M577.268,609.92a5.341,5.341,0,1,0,5.276-5.411A5.343,5.343,0,0,0,577.268,609.92Z" transform="translate(-549.073 -604.509)"/></g><path class="k" d="M535.143,650.712l5.129,28.926,24.51,18.412,5.739-2.544-21.537-20.695s-.965-17.854-1.381-23.3Z" transform="translate(-485.085 -564.887)"/><g transform="translate(74.937 136.999)"><path class="s" d="M549.8,699.889l2.224-.241c-.01-.087-.88-8.735,3.436-13.54a11.648,11.648,0,0,1,16.056,0c4.321,4.8,3.448,13.452,3.437,13.54l2.223.241c.044-.395,1-9.716-3.986-15.267a13.866,13.866,0,0,0-19.4,0C548.81,690.173,549.765,699.494,549.8,699.889Z" transform="translate(-549.705 -680.665)"/></g><g transform="translate(76.146 153.659)"><path class="q" d="M550.413,713.581s4.377,3.588,12.58,3.588,12.576-3.588,12.576-3.588V690.416H550.413Z" transform="translate(-550.413 -690.416)"/></g><path class="k" d="M558.488,676.931l9.809,3.651-3.027,11.9-12.992-8.336-.152-5.14Z" transform="translate(-473.053 -546.311)"/><rect class="o" width="6.708" height="28.645" transform="translate(101.722 42.066)"/><path class="p" d="M562.264,640.369l3.108-7.207,11.131-3.6v14.031l-6.4,3.077-6.264.777Z" transform="translate(-465.87 -579.87)"/><path class="q" d="M550.413,691.162c0,1,5.631,1.8,12.58,1.8s12.576-.8,12.576-1.8-5.633-1.8-12.576-1.8S550.413,690.169,550.413,691.162Z" transform="translate(-474.267 -537.504)"/><path class="s" d="M551.019,691.608c0,1,5.168,1.8,11.544,1.8s11.537-.807,11.537-1.8-5.166-1.8-11.537-1.8S551.019,690.615,551.019,691.608Z" transform="translate(-473.837 -537.187)"/></g><g transform="translate(1285.66 611.434)"><path class="t" d="M883.4,643.911l-7.963,2.179-7.877-2.179,2.235-14.468h11.367Z" transform="translate(-805.077 -589.775)"/><g transform="translate(56.11)"><path class="l" d="M864.889,617.762l1.293,4.91h22.224l1.9-4.91Z" transform="translate(-863.08 -598.051)"/><path class="k" d="M889.777,622.353v8.061H888.3v4.34l-6.367,10.357h-9.215l-6.367-10.357v-4.34h-1.468v-8.061h1.468V615.7H888.3v6.656Z" transform="translate(-863.08 -599.514)"/><rect class="m" width="21.948" height="3.741" transform="translate(3.277 19.098)"/><path class="m" d="M870.539,630.671l2.794-9,2.794,9Z" transform="translate(-859.077 -595.281)"/><rect class="n" width="3.618" height="4.917" transform="translate(0.001 10.765)"/><rect class="n" width="3.618" height="4.917" transform="translate(24.893 10.765)"/><path class="o" d="M890.915,621.224c.005-.174.022-.345.022-.516a13.263,13.263,0,1,0-26.526,0c0,.171.017.342.027.516Z" transform="translate(-863.418 -605.362)"/><path class="n" d="M876.546,621.378H871.4l-1.955-15.153H878.5Z" transform="translate(-859.849 -606.225)"/><path class="n" d="M892.414,617.7a2.217,2.217,0,0,1-2.124,2.3H865.954a2.219,2.219,0,0,1-2.124-2.3h0V615.4h28.511s.073,1.03.073,2.293Z" transform="translate(-863.83 -599.722)"/></g><path class="k" d="M862.445,649.4l-6.354,16.375-10.307-14.729-5.961,2.655,16.455,29.774,14.874-28.445Z" transform="translate(-824.728 -575.635)"/><path class="k" d="M889.737,641.2l27.408,18.1-13.42,24.383H896.09l8.38-21.239-19.318-11.268Z" transform="translate(-792.614 -581.449)"/><path class="k" d="M904.41,668.929l-13.277-6.917-7.953,6.917Z" transform="translate(-794.011 -566.7)"/><g transform="translate(5.258 32.426)"><path class="s" d="M855.6,649.172l-9.841-2.637v.022l-2.323,8.653-1.162-.312,2.3-8.678-9.838-2.637,16.01-18.267.09-.112Z" transform="translate(-833.589 -625.204)"/><path class="o" d="M843.161,639.8l-9.1,25.671,6.053,1.849,5.9-26.815Z" transform="translate(-834.065 -614.862)"/><path class="m" d="M851.271,649.172l-9.841-2.637v.022l-.581-.179,5.57-21.062.09-.112Z" transform="translate(-829.26 -625.204)"/></g><path class="k" d="M849.391,655.481v-9.293l-11.681-3.043-2.978,12.336,8.7,2.655Z" transform="translate(-828.335 -580.068)"/><path class="q" d="M924.885,651.329l-8.747,12.342-7.249-3.024-4.529,5.776-40.39-.439-1.473,4.182-10.849-5.881,6.981-20.124,7.755-3.912,5.925-2.993,7.432-2.775s2.211,6.643,7.1,6.643,6.928-6.643,6.928-6.643l7.922,2.775,5.925,2.993,7.779,3.912Z" transform="translate(-816.351 -586.205)"/><path class="o" d="M864.53,685.165,861.7,712.414h18.936l.269-1.9.359,1.9H900.9l-3.638-27.249,4.248-36.089H901.5l.009,0V639.1l-5.925-2.994v12.971H866.2V636.105l-5.925,2.994v9.973l.009,0Z" transform="translate(-810.24 -585.055)"/><rect class="n" width="22.664" height="15.931" transform="translate(59.073 68.775)"/><g transform="translate(0 102.229)"><rect class="s" width="39.874" height="12.121" transform="translate(60.994 15.386)"/><rect class="s" width="39.874" height="12.121" transform="translate(19.629 15.386)"/><rect class="s" width="39.877" height="12.121" transform="translate(1.117 87.168)"/><rect class="s" width="39.874" height="12.121" transform="translate(102.359 72.812)"/><rect class="s" width="39.874" height="12.121" transform="translate(60.994 72.812)"/><rect class="s" width="39.874" height="12.121" transform="translate(19.629 72.812)"/><rect class="s" width="39.877" height="12.121" transform="translate(83.846 58.456)"/><rect class="s" width="39.877" height="12.121" transform="translate(42.482 58.456)"/><rect class="s" width="39.877" height="12.121" transform="translate(1.117 58.456)"/><rect class="s" width="39.874" height="12.121" transform="translate(102.359 44.098)"/><rect class="s" width="39.874" height="12.121" transform="translate(60.994 44.098)"/><rect class="s" width="39.874" height="12.121" transform="translate(19.629 44.098)"/><rect class="s" width="39.877" height="12.121" transform="translate(83.846 29.742)"/><rect class="s" width="39.877" height="12.121" transform="translate(42.482 29.742)"/><rect class="s" width="39.877" height="12.121" transform="translate(83.846 1.118)"/><rect class="s" width="39.877" height="12.121" transform="translate(1.117 29.742)"/><rect class="s" width="39.874" height="12.121" transform="translate(102.359 15.386)"/><rect class="s" width="39.877" height="12.121" transform="translate(83.846 87.168)"/><rect class="s" width="39.877" height="12.121" transform="translate(42.482 87.168)"/><path class="u" d="M974.34,694.685V680.327H955.829V666.061H913.716v14.266H849.5v14.358H830.988v14.357H849.5V723.4H830.988v14.358H849.5v14.356H830.988v14.355H955.829V752.112H974.34V737.756H955.829V723.4H974.34V709.041H955.829V694.685ZM915.953,668.3H953.59v9.885H915.953ZM893.1,682.565h37.638v9.884H893.1Zm37.638,38.6H893.1v-9.885h37.638Zm22.853,4.473v9.884H915.953v-9.884Zm-79,9.884v-9.884h37.64v9.884Zm14.787,4.473v9.885h-37.64V739.99Zm-37.64-18.829v-9.885h37.64v9.885Zm64.219-14.355v-9.885H953.59v9.885Zm-3.726-9.885v9.885h-37.64v-9.885Zm-60.492-14.356h37.64v9.884h-37.64Zm-18.511,24.242v-9.885h37.64v9.885Zm0,28.711v-9.884h37.64v9.884Zm37.64,28.714h-37.64v-9.885h37.64Zm41.364,0h-37.64v-9.885h37.64ZM893.1,749.876V739.99h37.638v9.885Zm60.49,14.356H915.953v-9.885H953.59ZM972.1,739.99v9.885h-37.64V739.99Zm0-28.714v9.885h-37.64v-9.885Zm-37.64-18.828v-9.884H972.1v9.884Z" transform="translate(-830.988 -666.061)"/></g></g><g transform="translate(1547.66 598.872)"><g transform="translate(0 15.892)"><g transform="translate(34.804 1.713)"><g transform="translate(1.98 10.764)"><path class="k" d="M1033.937,649.43l1.56-7.254-.9-.171-3.282-.615-.588-.114-.637-1.2-5.308-9.921-2.535-4.726-.559-1.052,5.069-1.881,6.169-2.3,12.709-4.726,2.783,5.11.3,3.8.009.12,5.655,4.806-2.436,4.211,1.411,8.462-4.818,2.621-2.2-.41-.12,7.157C1042.505,651.645,1037.378,649.176,1033.937,649.43Z" transform="translate(-1021.689 -615.476)"/></g><g transform="translate(1.98 15.494)"><path class="l" d="M1030.092,638.118l1.23,1.31,3.28.607s1.358-5.349,1.594-6.265l-3.713-1.315-.917-3.084,2.346-2.691,2.144,1.145c.991-4.022,1.073-8.689.834-8.255l-3.957-1.324-11.243,4.177Z" transform="translate(-1021.689 -618.245)"/></g><g class="v" transform="translate(2.539 10.764)"><path class="s" d="M1024.551,630.159c7.757-1.324,18.942-4.358,23.932-5.77l-.3-3.8-2.783-5.11L1032.7,620.2l-6.169,2.3c-1.655,1.035-3.184,2.028-4.51,2.933Z" transform="translate(-1022.016 -615.476)"/></g><g transform="translate(0.092 10.996)"><path class="n" d="M1048.962,616.589s3.742-1.4,5.043-.847c1.042.446,4.921,2.839,2.848,3.808s-36.495,11.63-36.247,9.673-1.013-3,2.508-3.979Z" transform="translate(-1020.584 -615.612)"/></g><path class="o" d="M1021.958,631.142s5.691.8,14.814-2.32a98.69,98.69,0,0,0,14.269-6.215,26.858,26.858,0,0,0-2.387-5.821c-.263-.458-.531-.89-.813-1.3-4.869-7.188-12.422-7.47-18.489-4.622a15.318,15.318,0,0,0-8.734,15.494c.009.087.017.179.031.267A15.226,15.226,0,0,0,1021.958,631.142Z" transform="translate(-1020.53 -609.176)"/><g transform="translate(0.089 2.408)"><path class="n" d="M1020.613,625.623a.612.612,0,0,0,.037-.074c.14-.249.35-.613.591-1.074.121-.236.253-.5.407-.777.169-.266.34-.567.526-.88s.377-.641.583-.993c.225-.342.461-.7.711-1.058.123-.188.244-.379.372-.572s.273-.369.422-.559c.294-.372.564-.779.9-1.158s.665-.752,1.015-1.14c.379-.362.751-.729,1.134-1.1.427-.328.829-.687,1.271-1.01.222-.149.453-.3.682-.449l.344-.231.364-.2c.239-.121.485-.253.725-.383s.512-.219.764-.328a13.033,13.033,0,0,1,1.573-.545c.266-.065.54-.12.817-.179l.405-.092.412-.051c.278-.032.553-.079.832-.106s.557-.031.835-.043a18.44,18.44,0,0,1,3.277.2c.531.062,1.052.2,1.561.285.511.13,1.013.232,1.495.379.969.268,1.864.594,2.7.9.82.323,1.585.62,2.245.924.362.171.7.328,1.013.471-.263-.458-.531-.89-.813-1.3-.562-.386-1.21-.793-1.929-1.194a24.576,24.576,0,0,0-2.7-1.288c-.494-.214-1.021-.366-1.551-.559-.545-.152-1.1-.323-1.676-.439a16.717,16.717,0,0,0-3.646-.415,15.328,15.328,0,0,0-3.815.48,13.586,13.586,0,0,0-1.837.651c-.3.13-.6.253-.887.4s-.554.318-.827.475l-.412.241-.39.28c-.251.186-.506.371-.755.559-.475.388-.922.812-1.361,1.215-.4.439-.793.873-1.162,1.3-.333.465-.661.909-.984,1.351-.3.439-.545.9-.808,1.331-.116.222-.248.427-.355.646s-.207.429-.309.637q-.284.63-.554,1.2c-.143.4-.282.765-.41,1.121s-.25.675-.352.976-.167.595-.236.853c-.125.426-.207.781-.272,1.044C1020.59,625.443,1020.6,625.536,1020.613,625.623Z" transform="translate(-1020.582 -610.586)"/></g><g transform="translate(11.236 14.433)"><path class="n" d="M1036.78,621.27s-.581-3.449-1.38-3.634-7.922,1.741-8.227,2.337.5,4.659.811,4.772Z" transform="translate(-1027.107 -617.624)"/></g></g><g transform="translate(50.321 14.709)"><path class="p" d="M1039.487,664.981l22.87-18.438,7.309-25.957-5-3.8-10.738,24.459s-24.276,15.359-24.317,15.424Z" transform="translate(-1029.612 -616.783)"/></g><g transform="translate(0 43.35)"><g transform="translate(12.298 61.429)"><path class="n" d="M1021.493,705.17l8.577-35.258.113-.41c2.045,4.353,8.014,17.049,12.438,26.061l-6.713,15.845-11.5,12.991-17.049-1.64Z" transform="translate(-1007.357 -669.502)"/></g><g transform="translate(0 114.685)"><path class="q" d="M1012.456,700.674l17.049,1.641L1018.19,718.3l7.848,4.215,1.524,7.334-27.4-7.334Z" transform="translate(-1000.159 -700.674)"/></g><g transform="translate(64.785 40.528)"><path class="k" d="M1038.161,657.269l-.083.907.079-.907Z" transform="translate(-1038.078 -657.269)"/></g><g transform="translate(60.588 41.435)"><path class="k" d="M1037.8,666.9l-2.174,9.742,4.2-18.844Z" transform="translate(-1035.622 -657.799)"/></g><g transform="translate(52.709 97.097)"><path class="k" d="M1031.4,706.153c-.073-8.813-.174-16.1-.395-15.756C1031.26,690,1031.35,696.275,1031.4,706.153Z" transform="translate(-1031.01 -690.379)"/></g><g transform="translate(44.952 8.879)"><path class="q" d="M1047.023,662.832l-13.6,3.7-6.953-25.245,18.17-2.542a45.651,45.651,0,0,1,5.605,11.315Z" transform="translate(-1026.47 -638.744)"/></g><g transform="translate(44.952)"><path class="q" d="M1031.764,633.547c3.149,1.422,7.681,3.468,11.075,4.985l-.014.02.014.022-16.369,1.134Z" transform="translate(-1026.47 -633.547)"/></g><g transform="translate(34.403 5.028)"><path class="o" d="M1020.3,691.344l6.912-22.836-2.72-23.478,6.357-7.406,16.369-1.135,1.8,3.851-18.17,2.542,6.953,25.244,13.6-3.7-.642,7.562-.079.906-4.2,18.844,8.2,27.621-1.755,28.117.079-1.331h-13.993c0,.572,0,1.155,0,1.736h0c-.005-1.232-.007-2.409-.012-3.55-.055-9.878-.145-16.157-.395-15.756-.178.294-2.352-3.93-5.148-9.626-4.423-9.012-10.393-21.708-12.438-26.061C1020.563,691.917,1020.3,691.344,1020.3,691.344Z" transform="translate(-1020.295 -636.49)"/></g><g transform="translate(53.116 114.685)"><path class="q" d="M1045.24,700.674l-.078,1.331-1.083,17.372,9.974,4.358,3.07,6.485-25.853-2.035s.026-10.406,0-21.211c-.01-1.527-.014-3.055-.019-4.565,0-.581,0-1.164,0-1.736Z" transform="translate(-1031.248 -700.674)"/></g></g><g transform="translate(85.624)"><path class="p" d="M1050.276,623.5l.207-7.848,8.995-7.48,5.215,13.027-4.8,5.236-5.525,3.047Z" transform="translate(-1050.276 -608.174)"/></g><g transform="translate(50.312 58.544)"><path class="k" d="M1029.607,649.568l22.015,19.449,30.641-.832,2.91-5.564-29.741-2.8s-11.864-13.376-15.571-17.382Z" transform="translate(-1029.607 -642.44)"/></g><g transform="translate(89.756 9.995)"><path class="q" d="M1075.019,761.223l-1.105-1.943c6.438-3.664,6.149-31.315,5.493-41.661,0-8.18-.292-14.467-.745-19.3a130.056,130.056,0,0,1-2.9,17.844c-2.821,10.613-8.829,21.551-13.652,20.8-3.426-.559-4.755-6.2-4.054-17.24.992-15.669,8.069-39.615,15.47-39.615h.111c1.44.05,2.684.957,3.733,2.747.157-10.938-.926-20.281-4.032-21.694-1.589-.73-4.285,1.5-7.4,6.1-3.154,4.652-5.817,6.5-8.15,5.638-8.633-3.186-3.914-49.6-2.879-58.867l2.223.249c-2.493,22.333-3.694,54.632,1.428,56.517.553.212,2.183.139,5.525-4.789,4.012-5.927,7.345-8.175,10.174-6.883,4.914,2.24,5.86,15.692,5.163,29.365,1.485,6.191,2.219,15.846,2.219,29.067C1081.888,721.428,1083.828,756.211,1075.019,761.223Zm-1.5-78.884c-4.4,0-12.1,19.663-13.232,37.515-.885,13.989,1.871,14.843,2.188,14.9,2.262.374,8.023-7.493,11.127-19.167,1.7-6.39,3.074-16.841,3.576-26.9-1.419-5.787-3.087-6.333-3.61-6.349Z" transform="translate(-1052.694 -614.024)"/></g><g transform="translate(102.189 75.481)"><path class="k" d="M1063.66,655.6l9.953-3.243,5.036,11.2-15.359,1.56-3.319-3.932Z" transform="translate(-1059.971 -652.354)"/></g></g><g transform="translate(80.216)"><path class="s" d="M1054.509,601.108h0a5.162,5.162,0,0,1,3.721,8.739c-1.122,1.174-.759,2.7-.412,4.182.678,2.853.328,2.956-.079,3.079a1.126,1.126,0,0,1-.323.056c-.55,0-1.283-1.852-1.6-2.646-.581-1.468-1.131-2.857-2.641-3.263a5.16,5.16,0,0,1-.149-9.93,5.22,5.22,0,0,1,1.48-.217Zm0-2.236a7.31,7.31,0,0,0-2.117.311,7.4,7.4,0,0,0,.2,14.237c1.175.314,1.577,5.98,4.819,5.98a3.3,3.3,0,0,0,.965-.152c4.141-1.234.608-6.959,1.462-7.854a7.4,7.4,0,0,0-5.335-12.521Z" transform="translate(-1047.111 -598.872)"/></g><g transform="translate(88.414 17.921)"><rect class="w" width="5.347" height="7.621" transform="translate(0 1.532) rotate(-16.647)"/></g><g transform="translate(102.308 172.596)"><path class="w" d="M1062.136,704.915c-.581.624-1.4.8-1.835.4h0c-.43-.4-.314-1.232.263-1.857l2.734-2.945c.581-.627,1.4-.8,1.835-.4h0c.43.4.32,1.232-.263,1.857Z" transform="translate(-1060.041 -699.895)"/></g><g transform="translate(105.928 175.642)"><path class="w" d="M1064.308,706.744a1.373,1.373,0,0,1-1.866.366h0a1.377,1.377,0,0,1,.227-1.885l2.739-2.949a1.375,1.375,0,0,1,1.86-.366h0a1.374,1.374,0,0,1-.229,1.885Z" transform="translate(-1062.16 -701.678)"/></g><g transform="translate(105.045 168.821)"><path class="s" d="M1068.2,707.486l2.118-2.286a4.472,4.472,0,1,0-6.554-6.087l-2.122,2.289Z" transform="translate(-1061.643 -697.686)"/></g></g><g transform="translate(502.66 605.202)"><g transform="translate(10.038)"><g transform="translate(53.175 39.668)"><path class="t" d="M398.39,640.264l-7.964,2.179-7.876-2.179,2.236-14.468h11.368Z" transform="translate(-382.551 -625.796)"/></g><g transform="translate(46.803)"><g transform="translate(1.806 19.711)"><path class="l" d="M379.879,614.114l1.295,4.909H403.4l1.9-4.909Z" transform="translate(-379.879 -614.114)"/></g><g transform="translate(1.806 16.183)"><path class="k" d="M404.767,618.7v8.061H403.3v4.341l-6.37,10.356h-9.212l-6.369-10.356v-4.341h-1.467V618.7h1.467v-6.655H403.3V618.7Z" transform="translate(-379.879 -612.049)"/></g><g class="v" transform="translate(3.273 19.097)"><rect class="s" width="21.951" height="3.741"/></g><g class="v" transform="translate(11.46 26.39)"><path class="s" d="M385.53,627.024l2.794-9,2.795,9Z" transform="translate(-385.53 -618.024)"/></g><g transform="translate(0 10.766)"><rect class="n" width="3.617" height="4.917"/></g><g transform="translate(24.893 10.766)"><rect class="n" width="3.615" height="4.917"/></g><g transform="translate(0.993 2.079)"><path class="o" d="M405.9,617.576c.005-.174.024-.345.024-.518a13.262,13.262,0,1,0-26.524,0c0,.173.015.343.026.518Z" transform="translate(-379.403 -603.794)"/></g><g transform="translate(9.6)"><path class="n" d="M391.537,617.729H386.4l-1.956-15.152h9.052Z" transform="translate(-384.441 -602.577)"/></g><g transform="translate(0 15.682)"><path class="n" d="M407.4,614.049a2.215,2.215,0,0,1-2.124,2.3H380.946a2.214,2.214,0,0,1-2.124-2.3h0v-2.293H407.33s.073,1.029.073,2.293Z" transform="translate(-378.822 -611.756)"/></g></g><path class="k" d="M380.009,645.314l-6.35,16.374-16.271-6.115-5.961,2.655,25.888,18.538,11.407-25.822Z" transform="translate(-351.427 -572.299)"/><path class="k" d="M411.693,647.494l5.581,20.416-3.153,25.665H408.29l-.916-27.982-4.548-14.127Z" transform="translate(-315.012 -570.754)"/><g transform="translate(24.185 48.276)"><path class="q" d="M439.953,658.047l-12.687,8.472-1.474-4.182H379.707l-1.473,4.182L365.583,659.3l8.782-18.783,7.758-3.912,5.927-3,7.43-2.771s2.209,6.643,7.1,6.643,6.926-6.643,6.926-6.643l7.922,2.771,5.925,3,7.78,3.912Z" transform="translate(-365.583 -630.834)"/></g><g transform="translate(37.118 51.048)"><path class="o" d="M413.746,681.519,418,645.429h-.016l.009,0v-9.972l-5.926-3v12.972h-29.38V632.456l-5.926,3v9.972l.007,0,4.25,36.09-7.865,75.615h17.116l7.118-50.272,9.5,50.272H423.85Z" transform="translate(-373.153 -632.456)"/></g><g transform="translate(49.762 68.775)"><rect class="n" width="22.665" height="15.93"/></g><g transform="translate(70.851 175.726)"><path class="q" d="M410.013,705.432l-.083,18.27,4.478,7.687-7.793,8.235-9.356-5.5-.764-5.978-.5-3.9-3.1-18.811Z" transform="translate(-392.897 -705.432)"/></g><g class="v" transform="translate(74.096 193.996)"><path class="s" d="M395.914,726.55l-1.117-8.773,13.788-1.651,4.478,7.687-7.793,8.235Z" transform="translate(-394.797 -716.126)"/></g><g transform="translate(32.722 175.726)"><path class="q" d="M374.975,705.432l.083,18.27-4.478,7.687,7.793,8.235,9.356-5.5.764-5.978.5-3.9,3.1-18.811Z" transform="translate(-370.58 -705.432)"/></g><g class="v" transform="translate(32.722 193.996)"><path class="s" d="M387.729,726.55l1.119-8.773-13.789-1.651-4.478,7.687,7.793,8.235Z" transform="translate(-370.58 -716.126)"/></g></g><path class="s" d="M354.15,672.648l6.125-25.024,5.348-3.043-2.657-7.951-1.329,5.431-1.794.278-1.37-3.222,1.428-5.828-6.379,5.49,2.166,5.836-6.7,27.348a5.36,5.36,0,1,0,5.158.685Zm-3.8,6.76a2.516,2.516,0,1,1,3.027-1.838A2.507,2.507,0,0,1,350.346,679.409Z" transform="translate(-345.551 -580.818)"/><path class="k" d="M361,656.435v-9.293L349.317,644.1l-2.982,12.337,8.7,2.655Z" transform="translate(-344.996 -573.161)"/><rect class="q" width="50.289" height="28.016" transform="translate(82.066 135.492)"/><rect class="s" width="56.324" height="14.535" transform="translate(79.053 133.256)"/><rect class="o" width="4.847" height="9.503" transform="translate(89.589 143.318)"/><rect class="o" width="4.847" height="9.503" transform="translate(118.656 143.318)"/><g transform="translate(93.318 125.43)"><path class="s" d="M426.627,683.819h-2.235V678.23H402.408v5.589h-2.236v-7.825h26.455Z" transform="translate(-400.172 -675.993)"/></g><path class="k" d="M412.361,670.9l-8.594,3.535,1.627,11.959,12.542-1.937-.852-9.055Z" transform="translate(-304.307 -554.173)"/></g></g></g></svg>