<svg xmlns="http://www.w3.org/2000/svg" width="19.375" height="19.375" viewBox="0 0 19.375 19.375">
    <defs>
        <style>.a{fill:#fff;}</style>
    </defs>
    <g transform="translate(0 7.612)">
        <path class="a"
              d="M4.844,187.733H.692a.692.692,0,0,0-.692.692V198.8a.692.692,0,0,0,.692.692H4.844a.692.692,0,0,0,.692-.692v-10.38A.692.692,0,0,0,4.844,187.733Zm-.692,10.38H1.384v-9H4.152Z"
              transform="translate(0 -187.733)"/>
    </g>
    <g transform="translate(6.92)">
        <path class="a"
              d="M175.51,0h-4.152a.692.692,0,0,0-.692.692V18.683a.692.692,0,0,0,.692.692h4.152a.692.692,0,0,0,.692-.692V.692A.692.692,0,0,0,175.51,0Zm-.692,17.991H172.05V1.384h2.768Z"
              transform="translate(-170.666)"/>
    </g>
    <g transform="translate(13.839 5.536)">
        <path class="a"
              d="M346.177,136.533h-4.152a.692.692,0,0,0-.692.692V149.68a.692.692,0,0,0,.692.692h4.152a.692.692,0,0,0,.692-.692V137.225A.692.692,0,0,0,346.177,136.533Zm-.692,12.455h-2.768V137.917h2.768Z"
              transform="translate(-341.333 -136.533)"/>
    </g>
</svg>