<svg xmlns="http://www.w3.org/2000/svg" width="59.006" height="48.926" viewBox="0 0 59.006 48.926"><defs><style>.a{fill:#fff;}</style></defs><g transform="translate(0 -43.729)"><g transform="translate(0 65.159)"><path class="a" d="M50.362,234.114H44.586a8.621,8.621,0,0,0-2.271.3,8.651,8.651,0,0,0-7.707-4.739H24.4a8.651,8.651,0,0,0-7.707,4.739,8.621,8.621,0,0,0-2.271-.3H8.643A8.653,8.653,0,0,0,0,242.757v9.233a5.192,5.192,0,0,0,5.186,5.186H53.82a5.192,5.192,0,0,0,5.186-5.186v-9.233A8.653,8.653,0,0,0,50.362,234.114Zm-34.608,4.21v15.4H5.186a1.731,1.731,0,0,1-1.729-1.729v-9.233a5.192,5.192,0,0,1,5.186-5.186h5.776a5.17,5.17,0,0,1,1.356.181C15.763,237.941,15.755,238.132,15.755,238.324Zm24.039,15.4H19.212v-15.4a5.192,5.192,0,0,1,5.186-5.186h10.21a5.192,5.192,0,0,1,5.186,5.186Zm15.755-1.729a1.731,1.731,0,0,1-1.729,1.729H43.251v-15.4c0-.192-.009-.382-.021-.571a5.175,5.175,0,0,1,1.356-.181h5.776a5.192,5.192,0,0,1,5.186,5.186Z" transform="translate(0 -229.68)"/></g><g transform="translate(3.851 53.268)"><path class="a" d="M41.095,126.5a7.681,7.681,0,1,0,7.681,7.681A7.689,7.689,0,0,0,41.095,126.5Zm0,11.9a4.223,4.223,0,1,1,4.223-4.223A4.228,4.228,0,0,1,41.095,138.408Z" transform="translate(-33.414 -126.504)"/></g><g transform="translate(19.242 43.729)"><g transform="translate(0 0)"><path class="a" d="M177.223,43.729A10.261,10.261,0,1,0,187.484,53.99,10.273,10.273,0,0,0,177.223,43.729Zm0,17.065a6.8,6.8,0,1,1,6.8-6.8A6.812,6.812,0,0,1,177.223,60.794Z" transform="translate(-166.962 -43.729)"/></g></g><g transform="translate(39.794 53.268)"><path class="a" d="M352.975,126.5a7.681,7.681,0,1,0,7.681,7.681A7.689,7.689,0,0,0,352.975,126.5Zm0,11.9a4.223,4.223,0,1,1,4.223-4.223A4.228,4.228,0,0,1,352.975,138.408Z" transform="translate(-345.294 -126.504)"/></g></g></svg>