<svg xmlns="http://www.w3.org/2000/svg" width="69" height="53" viewBox="0 0 69 53">
    <defs>
        <style>.a{fill:#fff;}</style>
    </defs>
    <path class="a"
          d="M69.85,13.609H66.4V10.152A1.151,1.151,0,0,0,65.25,9H41.1a5.74,5.74,0,0,0-4.6,2.339A5.74,5.74,0,0,0,31.9,9H7.75A1.151,1.151,0,0,0,6.6,10.152v3.457H3.15A1.151,1.151,0,0,0,2,14.761V60.848A1.151,1.151,0,0,0,3.15,62h66.7A1.151,1.151,0,0,0,71,60.848V14.761A1.151,1.151,0,0,0,69.85,13.609ZM4.3,59.7V15.913H6.6V56.239a1.151,1.151,0,0,0,1.15,1.152H31.9a3.462,3.462,0,0,1,3.243,2.3Zm31.05-3.422a5.656,5.656,0,0,0-3.45-1.187H8.9V11.3h23a3.464,3.464,0,0,1,3.45,3.457Zm1.15,1.152-.035-.035h.069Zm1.15-42.665A3.464,3.464,0,0,1,41.1,11.3h23V55.087h-23a5.656,5.656,0,0,0-3.45,1.187ZM68.7,59.7H37.857a3.462,3.462,0,0,1,3.243-2.3H65.25a1.151,1.151,0,0,0,1.15-1.152V15.913h2.3Z"
          transform="translate(-2 -9)"/>
    <path class="a"
          d="M47.584,13A4.584,4.584,0,0,0,43,17.584v27.5a1.146,1.146,0,0,0,.16.584L46.6,51.4a1.146,1.146,0,0,0,1.971,0l3.438-5.73a1.146,1.146,0,0,0,.16-.584v-27.5A4.584,4.584,0,0,0,47.584,13Zm0,35.593-1.891-3.163,1.891-1.261,1.891,1.261Zm2.292-5.65-1.146-.768V26.751H46.438V42.176l-1.146.768V24.46h4.584Zm0-20.776H45.292V19.876h4.584Zm-4.584-4.584a2.292,2.292,0,0,1,4.584,0Z"
          transform="translate(4.175 -8.416)"/>
    <path class="a" d="M10,14H31.773v2.292H10Z" transform="translate(-0.832 -8.27)"/>
    <path class="a" d="M10,18H22.606v2.292H10Z" transform="translate(-0.832 -7.628)"/>
    <path class="a" d="M23,18h6.876v2.292H23Z" transform="translate(1.159 -7.628)"/>
    <path class="a" d="M10,22h4.584v2.292H10Z" transform="translate(-0.832 -7.018)"/>
    <path class="a" d="M16,22H30.9v2.292H16Z" transform="translate(0.116 -7.018)"/>
</svg>