<svg xmlns="http://www.w3.org/2000/svg" width="20" height="20" viewBox="0 0 20 20">
    <defs>
        <style>.a{fill:#aaffbe;}</style>
    </defs>
    <g transform="translate(7.78 2.789)">
        <path class="a"
              d="M201.524,71.22a2.23,2.23,0,1,0,2.232,2.23A2.233,2.233,0,0,0,201.524,71.22Zm0,3.285a1.055,1.055,0,1,1,1.055-1.055A1.056,1.056,0,0,1,201.524,74.5Z"
              transform="translate(-199.292 -71.22)"/>
    </g>
    <path class="a"
          d="M13.482,9.431a11.306,11.306,0,0,0,1.554-4.413,5.022,5.022,0,0,0-10.043,0,8.453,8.453,0,0,0,.94,3.152L0,9V19.6l6.864-.962L13.125,20,20,19.031V8.465ZM6.3,17.538l-5.126.718V10.022L6.3,9.3v8.235Zm6.261,1.14-5.087-1.1V11.139c1.042,1.834,2.541,4.107,2.541,4.107s1.5-2.279,2.546-4.117v7.548ZM10.014,13.1c-1.4-2.218-3.848-6.434-3.848-8.08a3.848,3.848,0,0,1,7.7,0C13.862,6.665,11.415,10.88,10.014,13.1Zm8.812,4.913-5.093.718V10.579l5.093-.755Z"/>
</svg>