<svg xmlns="http://www.w3.org/2000/svg" width="20.465" height="16.303" viewBox="0 0 20.465 16.303">
    <defs>
        <style>.a{fill:#fff;}</style>
    </defs>
    <path class="a"
          d="M19.181,62.13V56.655l.227-.068c.874-.262,1.057-.706,1.057-1.032s-.183-.77-1.057-1.032l-7.476-2.243a6.154,6.154,0,0,0-1.7-.214,6.155,6.155,0,0,0-1.7.214L1.057,54.522C.183,54.784,0,55.228,0,55.554s.183.77,1.057,1.032l2.8.839v2.945c0,.561.365,1.352,2.1,1.931a14.05,14.05,0,0,0,4.276.6,14.05,14.05,0,0,0,4.276-.6c1.738-.579,2.1-1.37,2.1-1.931V57.426l1.37-.411V62.13A1.887,1.887,0,0,0,16.7,63.915v2.569a1.884,1.884,0,0,0,3.768,0V63.915a1.887,1.887,0,0,0-1.284-1.786Zm-10.3-8.7a5.018,5.018,0,0,1,1.355-.164,5.019,5.019,0,0,1,1.355.164l7.089,2.127-2.839.852h0l-4.245,1.273a5.019,5.019,0,0,1-1.355.164,5.02,5.02,0,0,1-1.355-.164L4.633,56.408h0l-2.839-.852Zm6.535,6.943c0,.077-.218.438-1.283.794a12.84,12.84,0,0,1-3.9.534,12.839,12.839,0,0,1-3.9-.534c-1.065-.355-1.283-.716-1.283-.794V57.785L8.533,58.83a6.154,6.154,0,0,0,1.7.214,6.154,6.154,0,0,0,1.7-.214l3.481-1.044Zm3.853,6.113a.685.685,0,0,1-1.37,0V63.915a.685.685,0,1,1,1.37,0Z"
          transform="translate(0 -52.065)"/>
</svg>