<svg xmlns="http://www.w3.org/2000/svg" width="18.006" height="19.207" viewBox="0 0 18.006 19.207">
    <defs>
        <style>.a{fill:#fff;}</style>
    </defs>
    <g transform="translate(0 0)">
        <path class="a"
              d="M32.881,9.1c0-6.333.018-5.93-.041-6.076a.562.562,0,0,0-.367-.752L24.6.022a.562.562,0,0,0-.309,0L16.408,2.273a.563.563,0,0,0,0,1.082l2.968.848v2.55a5.729,5.729,0,0,0,2.771,5.016l-.31.621a6.107,6.107,0,0,0-4.028,1.844A6.263,6.263,0,0,0,16,18.645a.563.563,0,0,0,.563.563H32.318a.563.563,0,0,0,.563-.563,6.263,6.263,0,0,0-1.809-4.411,6.107,6.107,0,0,0-4.027-1.844l-.311-.621A5.729,5.729,0,0,0,29.5,6.753V4.2l2.251-.643V9.1a1.691,1.691,0,0,0-1.125,1.591v1.125a.563.563,0,0,0,.563.563h2.251a.563.563,0,0,0,.563-.563V10.692A1.691,1.691,0,0,0,32.881,9.1Zm-9,8.981H17.156a5.106,5.106,0,0,1,4.739-4.568l1.983,2.975ZM22.839,12.9l.348-.7a4.588,4.588,0,0,0,2.506,0l.348.7-1.6,2.4Zm4.147.612a5.106,5.106,0,0,1,4.739,4.568H25V16.489Zm-2.546-2.26a4.122,4.122,0,0,1-3.863-3.623,9.522,9.522,0,0,0,3.863.81,9.523,9.523,0,0,0,3.863-.81A4.122,4.122,0,0,1,24.44,11.254Zm3.927-5.137a.513.513,0,0,1-.264.366,8.345,8.345,0,0,1-3.663.832,8.344,8.344,0,0,1-3.663-.832.542.542,0,0,1-.276-.489V4.525c4.084,1.167,3.826,1.1,3.939,1.1s-.146.064,3.939-1.1A14.2,14.2,0,0,1,28.367,6.118ZM24.44,4.48l-5.83-1.666,5.83-1.666,5.83,1.666Zm8.44,6.775H31.756v-.563a.563.563,0,1,1,1.125,0Z"
              transform="translate(-16 0)"/>
    </g>
    <g transform="translate(11.254 15.756)">
        <path class="a" d="M317.688,420h-1.125a.563.563,0,0,0,0,1.125h1.125a.563.563,0,0,0,0-1.125Z"
              transform="translate(-316 -420.001)"/>
    </g>
</svg>