<svg xmlns="http://www.w3.org/2000/svg" width="19.52" height="18.921" viewBox="0 0 19.52 18.921">
    <defs>
        <style>.a{fill:#fff;}</style>
    </defs>
    <g transform="translate(0 0)">
        <g transform="translate(2.859 0)">
            <path class="a"
                  d="M77.288,0A2.282,2.282,0,0,0,75,2.254a2.289,2.289,0,0,0,4.575,0A2.282,2.282,0,0,0,77.288,0Zm0,3.363a1.128,1.128,0,0,1-1.144-1.109,1.144,1.144,0,1,1,2.288,0A1.128,1.128,0,0,1,77.288,3.363Z"
                  transform="translate(-75 0)"/>
        </g>
        <g transform="translate(0 0)">
            <g transform="translate(0 0)">
                <path class="a"
                      d="M17.8,0H9.722A1.692,1.692,0,0,0,8.006,1.663V5.446l-.5-.487a1.732,1.732,0,0,0-1.213-.487H2.859A2.82,2.82,0,0,0,0,7.243v3.326a1.692,1.692,0,0,0,1.716,1.663,1.757,1.757,0,0,0,.572-.095v5.121A1.692,1.692,0,0,0,4,18.921,1.74,1.74,0,0,0,5.147,18.5a1.74,1.74,0,0,0,1.144.424,1.692,1.692,0,0,0,1.716-1.663V9.92a1.772,1.772,0,0,0,1.339-.081l1.926-.933H17.8A1.692,1.692,0,0,0,19.52,7.243V1.663A1.692,1.692,0,0,0,17.8,0ZM11.122,7.739,8.835,8.847a.585.585,0,0,1-.661-.1l-.335-.325a.575.575,0,0,0-.976.39v8.449a.572.572,0,0,1-1.144,0v-5.58a.572.572,0,0,0-1.144,0v5.58a.572.572,0,0,1-1.144,0V7.243a.572.572,0,0,0-1.144,0v3.326a.572.572,0,0,1-1.144,0c0-.418,0-2.984,0-3.326A1.692,1.692,0,0,1,2.859,5.58H6.291a.577.577,0,0,1,.4.162L8.4,7.395a.585.585,0,0,0,.66.1l1.551-.751A.579.579,0,0,1,11.377,7,.546.546,0,0,1,11.122,7.739Zm7.255-.5A.564.564,0,0,1,17.8,7.8H12.483l.011-.028a1.609,1.609,0,0,0,.076-.732L15.7,5.522a.547.547,0,0,0,.256-.744.58.58,0,0,0-.767-.248L12.058,6.046a1.755,1.755,0,0,0-1.959-.29l-.948.46V1.663a.564.564,0,0,1,.572-.554H17.8a.564.564,0,0,1,.572.554Z"
                      transform="translate(0 0)"/>
            </g>
        </g>
    </g>
</svg>