<svg xmlns="http://www.w3.org/2000/svg" width="20.009" height="16.591" viewBox="0 0 20.009 16.591">
    <defs>
        <style>.a{fill:#fff;}</style>
    </defs>
    <g transform="translate(0 -43.729)">
        <g transform="translate(0 50.996)">
            <g transform="translate(0 0)">
                <path class="a"
                      d="M17.078,231.183H15.119a2.924,2.924,0,0,0-.77.1,2.933,2.933,0,0,0-2.614-1.607H8.273a2.933,2.933,0,0,0-2.614,1.607,2.924,2.924,0,0,0-.77-.1H2.931A2.934,2.934,0,0,0,0,234.114v3.131A1.761,1.761,0,0,0,1.759,239H18.25a1.761,1.761,0,0,0,1.759-1.759v-3.131A2.934,2.934,0,0,0,17.078,231.183ZM5.342,232.611v5.221H1.759a.587.587,0,0,1-.586-.586v-3.131a1.761,1.761,0,0,1,1.759-1.759H4.89a1.753,1.753,0,0,1,.46.061C5.345,232.481,5.342,232.546,5.342,232.611Zm8.152,5.221H6.515v-5.221a1.761,1.761,0,0,1,1.759-1.759h3.462a1.761,1.761,0,0,1,1.759,1.759Zm5.342-.586a.587.587,0,0,1-.586.586H14.666v-5.221c0-.065,0-.13-.007-.194a1.754,1.754,0,0,1,.46-.061h1.959a1.761,1.761,0,0,1,1.759,1.759Z"
                      transform="translate(0 -229.68)"/>
            </g>
        </g>
        <g transform="translate(1.306 46.964)">
            <g transform="translate(0 0)">
                <path class="a"
                      d="M36.018,126.5a2.6,2.6,0,1,0,2.6,2.6A2.607,2.607,0,0,0,36.018,126.5Zm0,4.037a1.432,1.432,0,1,1,1.432-1.432A1.434,1.434,0,0,1,36.018,130.541Z"
                      transform="translate(-33.414 -126.504)"/>
            </g>
        </g>
        <g transform="translate(6.525 43.729)">
            <g transform="translate(0 0)">
                <path class="a"
                      d="M170.442,43.729a3.48,3.48,0,1,0,3.48,3.48A3.483,3.483,0,0,0,170.442,43.729Zm0,5.787a2.307,2.307,0,1,1,2.307-2.307A2.31,2.31,0,0,1,170.442,49.516Z"
                      transform="translate(-166.962 -43.729)"/>
            </g>
        </g>
        <g transform="translate(13.494 46.964)">
            <g transform="translate(0 0)">
                <path class="a"
                      d="M347.9,126.5a2.6,2.6,0,1,0,2.6,2.6A2.607,2.607,0,0,0,347.9,126.5Zm0,4.037a1.432,1.432,0,1,1,1.432-1.432A1.434,1.434,0,0,1,347.9,130.541Z"
                      transform="translate(-345.294 -126.504)"/>
            </g>
        </g>
    </g>
</svg>