<svg xmlns="http://www.w3.org/2000/svg" width="45.367" height="58.977" viewBox="0 0 45.367 58.977">
    <defs>
        <style>.a{fill:#fff;}</style>
    </defs>
    <g transform="translate(-61.898 0)">
        <g transform="translate(67.422 5.536)">
            <g transform="translate(0)">
                <path class="a"
                      d="M134.227,49.891A16.787,16.787,0,0,0,113.4,75.169a.929.929,0,0,0,1.466-1.141A14.93,14.93,0,0,1,133.39,51.549a.929.929,0,1,0,.838-1.658Z"
                      transform="translate(-109.878 -48.082)"/>
            </g>
        </g>
        <g transform="translate(74.222 14.266)">
            <g transform="translate(0)">
                <path class="a"
                      d="M188.747,124.317a.929.929,0,0,0-1.659.838,14.929,14.929,0,0,1-22.48,18.52.929.929,0,1,0-1.141,1.466,16.787,16.787,0,0,0,25.28-20.824Z"
                      transform="translate(-163.109 -123.806)"/>
            </g>
        </g>
        <g transform="translate(94.278 9.515)">
            <path class="a"
                  d="M341.674,84.321c-.23-.26-.472-.518-.719-.764s-.5-.489-.764-.719a.929.929,0,0,0-1.231,1.392c.232.2.461.42.681.64s.435.449.64.681a.929.929,0,0,0,1.392-1.23Z"
                  transform="translate(-338.647 -82.605)"/>
        </g>
        <g transform="translate(61.898 0)">
            <g transform="translate(0 0)">
                <path class="a"
                      d="M106.793,24.007a3.116,3.116,0,0,0,0-3.3l-1.241-2.005a1.293,1.293,0,0,1-.178-.884l.37-2.316a3.132,3.132,0,0,0-1.283-3.052l-1.923-1.378a1.308,1.308,0,0,1-.509-.749l-.56-2.281A3.176,3.176,0,0,0,99.1,5.713L96.79,5.161a1.328,1.328,0,0,1-.76-.5l-1.4-1.9a3.219,3.219,0,0,0-3.1-1.265l-2.35.364a1.343,1.343,0,0,1-.9-.175L86.254.465a3.239,3.239,0,0,0-3.344,0L80.875,1.688a1.343,1.343,0,0,1-.9.175L77.629,1.5a3.22,3.22,0,0,0-3.1,1.265l-1.4,1.895a1.329,1.329,0,0,1-.761.5l-2.314.552a3.177,3.177,0,0,0-2.366,2.332l-.56,2.281a1.307,1.307,0,0,1-.509.749L64.7,12.453A3.132,3.132,0,0,0,63.418,15.5l.37,2.317a1.293,1.293,0,0,1-.178.883L62.37,20.71a3.116,3.116,0,0,0,0,3.3l1.241,2.005a1.293,1.293,0,0,1,.178.884l-.37,2.316A3.132,3.132,0,0,0,64.7,32.263l1.923,1.378a1.307,1.307,0,0,1,.509.749l.56,2.281A3.176,3.176,0,0,0,70.059,39l.966.23L64.486,53.612a.918.918,0,0,0,.1.931.948.948,0,0,0,.871.372l5.261-.62,3.031,4.284a.947.947,0,0,0,.773.4c.029,0,.059,0,.088,0a.943.943,0,0,0,.772-.545l6.678-14.684.846.509a3.239,3.239,0,0,0,3.344,0l.877-.527,6.687,14.7a.942.942,0,0,0,.772.545c.03,0,.059,0,.088,0a.947.947,0,0,0,.773-.4L98.482,54.3l5.261.62a.949.949,0,0,0,.871-.372.918.918,0,0,0,.1-.931L98.173,39.227l.93-.222a3.177,3.177,0,0,0,2.366-2.332l.56-2.281a1.307,1.307,0,0,1,.509-.749l1.923-1.379a3.132,3.132,0,0,0,1.284-3.052l-.37-2.317a1.293,1.293,0,0,1,.178-.883ZM74.345,56.169l-2.4-3.4a.948.948,0,0,0-.885-.391l-4.17.491,5.958-13.1a1.309,1.309,0,0,1,.287.283l1.4,1.9a3.211,3.211,0,0,0,.445.489l-3.136,6.895a.924.924,0,0,0,.475,1.228.949.949,0,0,0,1.246-.468l3.125-6.87a3.274,3.274,0,0,0,.942-.008l2.35-.364a1.343,1.343,0,0,1,.421,0Zm27.968-3.3-4.17-.491a.948.948,0,0,0-.885.391l-2.4,3.4L88.8,42.851a1.347,1.347,0,0,1,.385,0l2.349.364a3.276,3.276,0,0,0,.979,0L95.64,50.1a.949.949,0,0,0,1.246.468.924.924,0,0,0,.475-1.228l-3.148-6.921a3.215,3.215,0,0,0,.417-.462l1.4-1.895a1.315,1.315,0,0,1,.317-.3Zm2.87-29.836-1.241,2.006a3.132,3.132,0,0,0-.431,2.14l.37,2.316a1.293,1.293,0,0,1-.53,1.26l-1.923,1.379a3.167,3.167,0,0,0-1.232,1.815l-.56,2.281a1.312,1.312,0,0,1-.977.963l-2.314.552A3.218,3.218,0,0,0,94.5,38.965l-1.4,1.895a1.329,1.329,0,0,1-1.278.522l-2.349-.364a3.255,3.255,0,0,0-2.171.424l-2.034,1.223a1.338,1.338,0,0,1-1.38,0l-2.035-1.223a3.256,3.256,0,0,0-2.171-.424l-2.35.364a1.329,1.329,0,0,1-1.278-.522l-1.4-1.9a3.218,3.218,0,0,0-1.842-1.215L70.5,37.2a1.312,1.312,0,0,1-.977-.963l-.56-2.281a3.167,3.167,0,0,0-1.232-1.816L65.811,30.76a1.293,1.293,0,0,1-.53-1.26l.37-2.316a3.132,3.132,0,0,0-.431-2.14L63.98,23.039a1.286,1.286,0,0,1,0-1.361l1.241-2.006a3.132,3.132,0,0,0,.431-2.14l-.37-2.316a1.293,1.293,0,0,1,.53-1.26l1.923-1.379a3.167,3.167,0,0,0,1.232-1.815l.56-2.281a1.312,1.312,0,0,1,.977-.963l2.314-.552a3.217,3.217,0,0,0,1.842-1.215l1.4-1.895a1.329,1.329,0,0,1,1.278-.522l2.349.364a3.253,3.253,0,0,0,2.171-.424l2.034-1.223a1.338,1.338,0,0,1,1.38,0l2.035,1.223a3.253,3.253,0,0,0,2.171.424l2.35-.364a1.33,1.33,0,0,1,1.278.522l1.4,1.9a3.218,3.218,0,0,0,1.842,1.215l2.314.552a1.312,1.312,0,0,1,.977.963l.56,2.281a3.167,3.167,0,0,0,1.232,1.816l1.923,1.378a1.293,1.293,0,0,1,.53,1.26l-.37,2.316a3.132,3.132,0,0,0,.431,2.14l1.241,2.005A1.286,1.286,0,0,1,105.183,23.039Z"
                      transform="translate(-61.898 0)"/>
            </g>
        </g>
        <g transform="translate(73.626 11.568)">
            <g transform="translate(0)">
                <path class="a"
                      d="M182.675,108.3a1.662,1.662,0,0,0-1.4-1.148l-5.59-.663-2.358-5.111a1.679,1.679,0,0,0-3.049,0l-2.358,5.112-5.59.663a1.679,1.679,0,0,0-.942,2.9l4.133,3.822-1.1,5.521a1.684,1.684,0,0,0,1.644,2.009,1.68,1.68,0,0,0,.822-.217l4.912-2.749,4.912,2.749a1.679,1.679,0,0,0,2.466-1.792l-1.1-5.521,4.133-3.822A1.662,1.662,0,0,0,182.675,108.3Zm-6.233,4.562a.929.929,0,0,0-.28.863l1.123,5.65-5.027-2.814a.929.929,0,0,0-.908,0l-5.027,2.814,1.123-5.65a.928.928,0,0,0-.28-.863l-4.229-3.911,5.721-.678a.929.929,0,0,0,.734-.533L171.8,102.5l2.413,5.231a.929.929,0,0,0,.734.533l5.72.678Z"
                      transform="translate(-160.849 -100.398)"/>
            </g>
        </g>
    </g>
</svg>