<svg xmlns="http://www.w3.org/2000/svg" width="10.278" height="19.01" viewBox="0 0 10.278 19.01"><defs><style>.a{fill:#0b74dc;}</style></defs><g transform="translate(0 0)"><path class="a" d="M-241.156-170.3h-2.373c-.354,0-.492-.137-.493-.487q0-1.457,0-2.914c0-.352.149-.5.5-.5h2.361v-.172c0-.644,0-1.288,0-1.932a5.192,5.192,0,0,1,.648-2.659,4,4,0,0,1,2.611-1.913,5.986,5.986,0,0,1,1.5-.155c.717,0,1.433,0,2.15,0,.356,0,.5.144.5.5q0,1.34,0,2.68c0,.362-.138.5-.5.5-.644.007-1.288,0-1.931.031a.887.887,0,0,0-.91.684,1.138,1.138,0,0,0-.051.306c0,.7,0,1.4,0,2.13h2.749c.387,0,.525.137.525.523q0,1.441,0,2.883c0,.367-.128.494-.5.495h-2.78v7.732c0,.417-.13.546-.55.546h-2.929c-.411,0-.534-.125-.534-.542q0-3.755,0-7.51Z" transform="translate(244.023 181.027)"/></g></svg>