<svg xmlns="http://www.w3.org/2000/svg" width="22.828" height="19.01" viewBox="0 0 22.828 19.01">
    <defs>
        <style>.a{fill:#0b74dc;}</style>
    </defs>
    <path class="a"
          d="M-31.172,149.542v.571a1.153,1.153,0,0,0-.09.212q-1.716,8.246-3.426,16.494c-.273,1.319-1.043,1.625-2.142.83q-2.27-1.643-4.539-3.289c-.151-.109-.306-.214-.478-.335-.934.882-1.841,1.742-2.751,2.6-.7.654-1.3.5-1.6-.4-.634-1.889-1.271-3.777-1.889-5.672a.71.71,0,0,0-.526-.524c-1.515-.453-3.03-.906-4.531-1.405a3.546,3.546,0,0,1-.852-.61v-.476a4.023,4.023,0,0,1,.825-.576q10.34-3.88,20.691-7.73C-31.8,148.97-31.638,149.01-31.172,149.542Zm-14.287,15.107.092-.019c.1-.865.218-1.727.277-2.594a1.142,1.142,0,0,1,.442-.834q4.542-4.078,9.063-8.178a1.643,1.643,0,0,0,.257-.532c-.182.013-.4-.038-.541.048q-5.432,3.443-10.851,6.909a.363.363,0,0,0-.174.5c.423,1.341.824,2.69,1.232,4.036Z"
          transform="translate(54 -149.073)"/>
</svg>